<svg width="77" height="81" viewBox="0 0 77 81" fill="none" xmlns="http://www.w3.org/2000/svg">
<rect width="77" height="81" rx="12" fill="black"/>
<path d="M15.8672 65L15.6523 60.6494L21.1846 59.1992C21.1846 58.7337 21.2025 57.7132 21.2383 56.1377C21.2741 54.5622 21.3099 52.8255 21.3457 50.9277C21.3815 49.0299 21.3994 47.347 21.3994 45.8789V33.5791C21.3994 30.07 21.3278 27.0443 21.1846 24.502C21.0771 21.9596 20.9339 20.5273 20.7549 20.2051L15.2764 18.8086L15.5449 14.4043H38.1572C44.8174 14.4043 49.7409 15.4785 52.9277 17.627C56.1504 19.7396 57.7617 23.0518 57.7617 27.5635C57.7617 30.4281 56.8844 32.9704 55.1299 35.1904C53.4111 37.3747 51.0299 39.0934 47.9863 40.3467C44.9427 41.5999 41.4515 42.2266 37.5127 42.2266H31.7656V37.124H35.7402C38.5332 37.124 40.7891 36.2467 42.5078 34.4922C44.2624 32.7376 45.1396 30.4102 45.1396 27.5098C45.1396 22.0671 42.3288 19.3457 36.707 19.3457H33.5381C33.4665 19.7038 33.4128 21.2793 33.377 24.0723C33.3411 26.8294 33.3232 29.8014 33.3232 32.9883V45.8789C33.3232 47.347 33.3411 48.9762 33.377 50.7666C33.4128 52.5212 33.4486 54.1683 33.4844 55.708C33.556 57.2477 33.6097 58.4115 33.6455 59.1992L38.4258 60.6494L38.2109 65H15.8672ZM61.1992 66.0205C56.2936 66.0205 52.1579 64.8568 48.792 62.5293C45.4619 60.2018 42.6689 56.5137 40.4131 51.4648L35.6865 40.8301L45.4082 38.5742L55.7207 52.8613C59.0866 57.5163 62.8105 60.3809 66.8926 61.4551L66.8389 65.4834C65.0485 65.8415 63.1686 66.0205 61.1992 66.0205Z" fill="white"/>
</svg>
